<svg width="18" height="22" viewBox="0 0 18 22" fill="none" xmlns="http://www.w3.org/2000/svg">
<path fill-rule="evenodd" clip-rule="evenodd" d="M7.80156 0.484375C7.57877 0.484506 7.36041 0.552774 7.17093 0.681534C6.98146 0.810294 6.82835 0.994461 6.72876 1.21341L5.85996 3.12103H1.80156C1.4833 3.12103 1.17808 3.25992 0.953034 3.50716C0.727991 3.75439 0.601563 4.08971 0.601562 4.43936C0.601563 4.789 0.727991 5.12432 0.953034 5.37155C1.17808 5.61879 1.4833 5.75768 1.80156 5.75768V18.941C1.80156 19.6402 2.05442 20.3109 2.50451 20.8054C2.95459 21.2998 3.56504 21.5776 4.20156 21.5776H13.8016C14.4381 21.5776 15.0485 21.2998 15.4986 20.8054C15.9487 20.3109 16.2016 19.6402 16.2016 18.941V5.75768C16.5198 5.75768 16.825 5.61879 17.0501 5.37155C17.2751 5.12432 17.4016 4.789 17.4016 4.43936C17.4016 4.08971 17.2751 3.75439 17.0501 3.50716C16.825 3.25992 16.5198 3.12103 16.2016 3.12103H12.1432L11.2744 1.21341C11.1748 0.994461 11.0217 0.810294 10.8322 0.681534C10.6427 0.552774 10.4244 0.484506 10.2016 0.484375H7.80156ZM5.40156 8.39434C5.40156 8.0447 5.52799 7.70938 5.75303 7.46214C5.97808 7.21491 6.2833 7.07601 6.60156 7.07601C6.91982 7.07601 7.22505 7.21491 7.45009 7.46214C7.67513 7.70938 7.80156 8.0447 7.80156 8.39434V16.3043C7.80156 16.6539 7.67513 16.9893 7.45009 17.2365C7.22505 17.4837 6.91982 17.6226 6.60156 17.6226C6.2833 17.6226 5.97808 17.4837 5.75303 17.2365C5.52799 16.9893 5.40156 16.6539 5.40156 16.3043V8.39434ZM11.4016 7.07601C11.0833 7.07601 10.7781 7.21491 10.553 7.46214C10.328 7.70938 10.2016 8.0447 10.2016 8.39434V16.3043C10.2016 16.6539 10.328 16.9893 10.553 17.2365C10.7781 17.4837 11.0833 17.6226 11.4016 17.6226C11.7198 17.6226 12.025 17.4837 12.2501 17.2365C12.4751 16.9893 12.6016 16.6539 12.6016 16.3043V8.39434C12.6016 8.0447 12.4751 7.70938 12.2501 7.46214C12.025 7.21491 11.7198 7.07601 11.4016 7.07601Z" fill="#757575"/>
</svg>
