<svg width="20" height="22" viewBox="0 0 20 22" xmlns="http://www.w3.org/2000/svg">
<path d="M18.8952 1.25635C18.4452 0.762055 17.8348 0.484375 17.1984 0.484375C16.562 0.484375 15.9517 0.762055 15.5016 1.25635L6.39844 11.2572V14.9854H9.79204L18.8952 4.98458C19.3452 4.49014 19.5979 3.81961 19.5979 3.12047C19.5979 2.42132 19.3452 1.7508 18.8952 1.25635Z"/>
<path fill-rule="evenodd" clip-rule="evenodd" d="M0.398438 5.75775C0.398437 5.05846 0.651294 4.38782 1.10138 3.89335C1.55147 3.39888 2.16192 3.12109 2.79844 3.12109H7.59844C7.9167 3.12109 8.22192 3.25999 8.44697 3.50722C8.67201 3.75446 8.79844 4.08978 8.79844 4.43942C8.79844 4.78906 8.67201 5.12438 8.44697 5.37162C8.22192 5.61885 7.9167 5.75775 7.59844 5.75775H2.79844V18.941H14.7984V13.6677C14.7984 13.3181 14.9249 12.9827 15.1499 12.7355C15.375 12.4883 15.6802 12.3494 15.9984 12.3494C16.3167 12.3494 16.6219 12.4883 16.847 12.7355C17.072 12.9827 17.1984 13.3181 17.1984 13.6677V18.941C17.1984 19.6403 16.9456 20.3109 16.4955 20.8054C16.0454 21.2999 15.435 21.5777 14.7984 21.5777H2.79844C2.16192 21.5777 1.55147 21.2999 1.10138 20.8054C0.651294 20.3109 0.398438 19.6403 0.398438 18.941V5.75775Z"/>
</svg>
